<svg width="438" height="364" viewBox="0 0 438 364" fill="none" xmlns="http://www.w3.org/2000/svg">
<path d="M381.381 16.607C381.136 16.7942 381.089 17.1439 381.276 17.388C381.462 17.6331 381.812 17.6799 382.057 17.4927L381.381 16.607ZM417.883 51.1446C417.712 51.4002 417.781 51.746 418.037 51.9166C418.293 52.0882 418.638 52.0199 418.81 51.7633L417.883 51.1446ZM419.866 50.0431C420.016 49.7744 419.921 49.4352 419.652 49.2846C419.384 49.1339 419.045 49.2288 418.894 49.4975L419.866 50.0431ZM420.516 45.9925C420.409 46.2811 420.556 46.6016 420.844 46.7093C421.133 46.8162 421.453 46.6695 421.561 46.381L420.516 45.9925ZM422.669 42.5018C422.731 42.1999 422.536 41.9059 422.235 41.8439C421.933 41.7829 421.639 41.977 421.577 42.2789L422.669 42.5018ZM422.055 38.4457C422.041 38.7528 422.278 39.0145 422.585 39.0288C422.893 39.0431 423.154 38.8054 423.168 38.4983L422.055 38.4457ZM423.045 34.4655C423.012 34.1597 422.737 33.9386 422.431 33.9716C422.125 34.0047 421.904 34.2798 421.937 34.5855L423.045 34.4655ZM421.224 30.7901C421.304 31.0875 421.61 31.2635 421.907 31.1828C422.204 31.103 422.381 30.7964 422.3 30.5L421.224 30.7901ZM420.947 26.6982C420.822 26.4169 420.493 26.2906 420.211 26.4162C419.93 26.5419 419.804 26.8714 419.93 27.1527L420.947 26.6982ZM418.086 23.7588C418.253 24.017 418.598 24.0909 418.856 23.923C419.114 23.756 419.187 23.4113 419.02 23.1532L418.086 23.7588ZM416.555 19.9265C416.35 19.6971 415.998 19.6769 415.768 19.8819C415.538 20.0879 415.519 20.4395 415.724 20.6688L416.555 19.9265ZM412.899 17.9682C413.137 18.1631 413.488 18.1272 413.682 17.8891C413.877 17.65 413.841 17.299 413.602 17.105L412.899 17.9682ZM410.243 14.7823C409.977 14.6277 409.636 14.7187 409.481 14.985C409.327 15.2513 409.418 15.5915 409.684 15.746L410.243 14.7823ZM406.159 14.0569C406.446 14.168 406.768 14.0252 406.879 13.7376C406.99 13.451 406.847 13.1281 406.559 13.018L406.159 14.0569ZM402.646 11.8514C402.345 11.786 402.049 11.9783 401.984 12.2786C401.92 12.5798 402.111 12.8759 402.412 12.9403L402.646 11.8514ZM398.537 12.4204C398.844 12.4373 399.107 12.202 399.124 11.8952C399.141 11.5874 398.906 11.3253 398.599 11.3075L398.537 12.4204ZM394.516 11.4018C394.21 11.4322 393.987 11.706 394.018 12.0119C394.049 12.3178 394.323 12.5406 394.628 12.5101L394.516 11.4018ZM390.783 13.2095C391.08 13.1312 391.258 12.8255 391.179 12.5286C391.1 12.2309 390.795 12.0539 390.498 12.1322L390.783 13.2095ZM386.645 13.4868C386.363 13.6111 386.236 13.941 386.361 14.2221C386.486 14.5032 386.814 14.6305 387.096 14.5053L386.645 13.4868ZM383.658 16.3656C383.917 16.1988 383.991 15.8533 383.823 15.5952C383.656 15.3371 383.311 15.2631 383.053 15.4299L383.658 16.3656ZM418.81 51.7633C419.185 51.2019 419.537 50.6281 419.866 50.0431L418.894 49.4975C418.58 50.0572 418.243 50.6063 417.883 51.1446L418.81 51.7633ZM421.561 46.381C422.031 45.1154 422.401 43.8185 422.669 42.5018L421.577 42.2789C421.321 43.5395 420.966 44.7814 420.516 45.9925L421.561 46.381ZM423.168 38.4983C423.231 37.1559 423.19 35.8078 423.045 34.4655L421.937 34.5855C422.077 35.8699 422.115 37.1609 422.055 38.4457L423.168 38.4983ZM422.3 30.5C421.952 29.2104 421.502 27.9388 420.947 26.6982L419.93 27.1527C420.46 28.3396 420.891 29.5564 421.224 30.7901L422.3 30.5ZM419.02 23.1532C418.657 22.5924 418.269 22.0423 417.858 21.5022L416.972 22.1786C417.366 22.6958 417.738 23.2224 418.086 23.7588L419.02 23.1532ZM417.858 21.5022C417.44 20.9557 417.005 20.4308 416.555 19.9265L415.724 20.6688C416.156 21.1517 416.572 21.6552 416.972 22.1786L417.858 21.5022ZM413.602 17.105C412.536 16.2355 411.412 15.461 410.243 14.7823L409.684 15.746C410.803 16.3953 411.878 17.137 412.899 17.9682L413.602 17.105ZM406.559 13.018C405.285 12.5256 403.975 12.1368 402.646 11.8514L402.412 12.9403C403.685 13.2134 404.939 13.5861 406.159 14.0569L406.559 13.018ZM398.599 11.3075C397.241 11.2327 395.875 11.2632 394.516 11.4018L394.628 12.5101C395.93 12.3778 397.237 12.3484 398.537 12.4204L398.599 11.3075ZM390.498 12.1322C389.191 12.4782 387.902 12.9295 386.645 13.4868L387.096 14.5053C388.299 13.9725 389.532 13.541 390.783 13.2095L390.498 12.1322ZM383.053 15.4299C382.485 15.7979 381.927 16.1897 381.381 16.607L382.057 17.4927C382.58 17.0935 383.115 16.7173 383.658 16.3656L383.053 15.4299Z" fill="#F54C30"/>
<path d="M415.005 55.7198L414.45 55.675C414.434 55.8624 414.515 56.0448 414.663 56.1598C414.811 56.2757 415.008 56.3079 415.186 56.247L415.005 55.7198ZM419.667 54.7111C419.958 54.6116 420.113 54.2943 420.013 54.0029C419.913 53.7125 419.597 53.5572 419.306 53.6567L419.667 54.7111ZM415.967 50.7426C415.992 50.4367 415.763 50.1674 415.456 50.1429C415.15 50.1183 414.881 50.346 414.856 50.6529L415.967 50.7426ZM415.186 56.247L419.667 54.7111L419.306 53.6567L414.824 55.1936L415.186 56.247ZM415.56 55.7656L415.967 50.7426L414.856 50.6529L414.45 55.675L415.56 55.7656Z" fill="#F54C30"/>
<path d="M57.5573 331.917C57.6385 331.63 57.4719 331.332 57.1852 331.251C56.8984 331.169 56.6001 331.336 56.5188 331.623L57.5573 331.917ZM9.20254 326.333C9.18673 326.036 8.9326 325.807 8.635 325.824C8.33732 325.839 8.10892 326.093 8.12482 326.391L9.20254 326.333ZM8.30512 328.338C8.34418 328.634 8.61541 328.841 8.91082 328.802C9.20633 328.764 9.41423 328.493 9.37517 328.197L8.30512 328.338ZM10.1524 331.857C10.0681 331.57 9.76793 331.407 9.48207 331.491C9.19619 331.576 9.03285 331.876 9.11719 332.162L10.1524 331.857ZM10.5101 335.813C10.6376 336.083 10.9592 336.198 11.2287 336.071C11.4981 335.943 11.6133 335.622 11.4859 335.352L10.5101 335.813ZM13.3411 338.601C13.1738 338.355 12.8381 338.29 12.5915 338.457C12.3449 338.624 12.2805 338.96 12.4478 339.207L13.3411 338.601ZM14.8846 342.262C15.0879 342.48 15.4293 342.492 15.6474 342.288C15.8653 342.085 15.8771 341.744 15.6738 341.526L14.8846 342.262ZM18.4303 344.055C18.1956 343.87 17.8564 343.911 17.6726 344.147C17.4888 344.381 17.5301 344.721 17.7647 344.904L18.4303 344.055ZM21.0211 347.066C21.2815 347.212 21.6101 347.118 21.7551 346.858C21.9 346.597 21.8065 346.268 21.5461 346.123L21.0211 347.066ZM24.9464 347.684C24.6667 347.581 24.3565 347.724 24.2536 348.004C24.1507 348.283 24.2939 348.593 24.5736 348.696L24.9464 347.684ZM28.3585 349.766C28.6507 349.825 28.9352 349.636 28.994 349.344C29.0528 349.051 28.8635 348.767 28.5714 348.708L28.3585 349.766ZM32.3301 349.162C32.0323 349.149 31.781 349.381 31.7687 349.678C31.7564 349.976 31.9879 350.228 32.2856 350.24L32.3301 349.162ZM36.2389 350.09C36.535 350.055 36.7467 349.787 36.7118 349.491C36.6771 349.194 36.4089 348.984 36.1129 349.018L36.2389 350.09ZM39.8267 348.281C39.5397 348.362 39.3727 348.66 39.4536 348.947C39.5344 349.233 39.8325 349.401 40.1194 349.319L39.8267 348.281ZM43.8312 347.951C44.102 347.828 44.2205 347.506 44.0959 347.236C43.9712 346.965 43.6508 346.847 43.3801 346.971L43.8312 347.951ZM46.6864 345.125C46.4383 345.29 46.3711 345.625 46.5362 345.873C46.7015 346.121 47.0364 346.188 47.2846 346.023L46.6864 345.125ZM50.3958 343.579C50.6152 343.378 50.6292 343.036 50.4274 342.817C50.2255 342.598 49.8842 342.584 49.6649 342.786L50.3958 343.579ZM52.2402 340.011C52.0554 340.244 52.0951 340.584 52.3288 340.768C52.5626 340.953 52.9019 340.913 53.0868 340.68L52.2402 340.011ZM55.2879 337.393C55.4336 337.133 55.341 336.803 55.081 336.658C54.821 336.512 54.492 336.605 54.3464 336.865L55.2879 337.393ZM55.9317 333.427C55.8284 333.706 55.9715 334.017 56.2511 334.12C56.5307 334.223 56.841 334.08 56.9443 333.801L55.9317 333.427ZM8.12482 326.391C8.15963 327.045 8.22 327.694 8.30512 328.338L9.37517 328.197C9.29371 327.581 9.23603 326.959 9.20254 326.333L8.12482 326.391ZM9.11719 332.162C9.48741 333.416 9.95373 334.636 10.5101 335.813L11.4859 335.352C10.9532 334.225 10.5068 333.057 10.1524 331.857L9.11719 332.162ZM12.4478 339.207C13.1782 340.284 13.9925 341.306 14.8846 342.262L15.6738 341.526C14.8199 340.611 14.0404 339.632 13.3411 338.601L12.4478 339.207ZM17.7647 344.904C18.7835 345.702 19.8707 346.426 21.0211 347.066L21.5461 346.123C20.4454 345.511 19.405 344.818 18.4303 344.055L17.7647 344.904ZM24.5736 348.696C25.1808 348.92 25.8008 349.121 26.4334 349.301L26.7275 348.262C26.1216 348.09 25.5276 347.898 24.9464 347.684L24.5736 348.696ZM26.4334 349.301C27.0741 349.482 27.7163 349.637 28.3585 349.766L28.5714 348.708C27.9565 348.585 27.3414 348.436 26.7275 348.262L26.4334 349.301ZM32.2856 350.24C33.6171 350.295 34.9384 350.243 36.2389 350.09L36.1129 349.018C34.8684 349.164 33.6041 349.214 32.3301 349.162L32.2856 350.24ZM40.1194 349.319C41.3935 348.961 42.6345 348.502 43.8312 347.951L43.3801 346.971C42.2343 347.499 41.0462 347.938 39.8267 348.281L40.1194 349.319ZM47.2846 346.023C48.3811 345.293 49.422 344.476 50.3958 343.579L49.6649 342.786C48.7326 343.644 47.7362 344.426 46.6864 345.125L47.2846 346.023ZM53.0868 340.68C53.8991 339.653 54.6364 338.555 55.2879 337.393L54.3464 336.865C53.7229 337.977 53.0175 339.027 52.2402 340.011L53.0868 340.68ZM56.9443 333.801C57.171 333.186 57.3759 332.558 57.5573 331.917L56.5188 331.623C56.3449 332.237 56.1489 332.839 55.9317 333.427L56.9443 333.801Z" fill="#F54C30"/>
<path d="M8.77791 321.114L9.23455 320.827C9.13756 320.672 8.96948 320.578 8.78757 320.575C8.60557 320.571 8.43419 320.66 8.33178 320.81L8.77791 321.114ZM5.74919 324.603C5.58138 324.849 5.64516 325.185 5.89154 325.354C6.13784 325.521 6.47355 325.457 6.64136 325.211L5.74919 324.603ZM10.9217 325.532C11.0805 325.783 11.4137 325.86 11.6659 325.701C11.9181 325.541 11.9939 325.209 11.8351 324.957L10.9217 325.532ZM8.33178 320.81L5.74919 324.603L6.64136 325.211L9.22387 321.417L8.33178 320.81ZM8.32109 321.401L10.9217 325.532L11.8351 324.957L9.23455 320.827L8.32109 321.401Z" fill="#F54C30"/>
</svg>
