<svg width="167" height="42" viewBox="0 0 167 42" fill="none" xmlns="http://www.w3.org/2000/svg">
<path d="M4.33855 6.33748C6.70004 3.9681 8.73933 1.91573 8.86576 1.78161C8.9922 1.64343 9.11048 1.52964 9.12679 1.52557C9.14719 1.52557 9.28994 1.66375 9.449 1.83851C9.61214 2.0092 9.83646 2.2815 9.95474 2.43593C10.073 2.59443 10.2606 2.86673 10.3789 3.04555C10.4931 3.22437 10.7052 3.59827 10.8479 3.87869C10.9907 4.15911 11.1987 4.60617 11.3129 4.8744C11.4271 5.14263 11.6106 5.64658 11.7289 5.99203C11.8431 6.33748 12.0022 6.88613 12.0797 7.21126C12.1572 7.53639 12.2591 7.99157 12.304 8.22728C12.3448 8.463 12.3937 8.79219 12.4345 9.26363L9.1635 12.5352C7.36077 14.3356 5.46016 16.2376 3.97148 17.717L3.00078 16.7416C2.46649 16.2051 1.97706 15.7012 1.91181 15.624C1.84655 15.5467 1.68748 15.3354 1.56105 15.1566C1.43461 14.9778 1.33265 14.8193 1.32857 14.803C1.32857 14.7827 1.25516 14.6486 1.16543 14.4982C1.0757 14.3438 0.937028 14.0674 0.855457 13.8764C0.773885 13.6854 0.655607 13.405 0.59035 13.2465C0.525093 13.088 0.398657 12.7141 0.313007 12.4133C0.223278 12.1126 0.125393 11.7102 0.0927643 11.5192C0.0560572 11.3282 0.0193501 11.0518 0.00711438 10.9015C-0.00512132 10.747 -0.00104276 10.6292 0.0152715 10.6373C0.0315858 10.6414 1.97706 8.70685 4.33855 6.33748Z" fill="#F54C30"/>
<path d="M26.3914 29.2672C26.9991 28.6698 27.4845 28.1699 27.4722 28.1577C27.46 28.1455 27.4804 28.1455 27.513 28.1617C27.5456 28.1739 27.6639 28.3243 27.77 28.4991C27.8801 28.6698 28.0555 28.9664 28.1615 29.1574C28.2675 29.3485 28.4592 29.7224 28.5857 29.9906C28.7121 30.2588 28.8875 30.6612 28.9731 30.8847C29.0629 31.1082 29.1689 31.409 29.2178 31.5553C29.2627 31.7016 29.3565 32.0308 29.4259 32.2868C29.4952 32.5428 29.5849 32.9655 29.6298 33.2216C29.6746 33.4776 29.7154 33.8271 29.7358 34.3107L26.7993 37.2653C25.1841 38.891 23.8301 40.2362 23.7934 40.2565C23.7322 40.285 23.5527 40.1265 22.79 39.3705C22.2802 38.8585 21.4196 37.9887 20.8813 37.4279C20.3429 36.8711 19.8331 36.3347 19.6006 36.0664L20.6732 35.0057C21.2606 34.4245 21.7541 33.9531 21.7663 33.9612C21.7826 33.9693 22.1048 34.266 22.4841 34.6237C22.8594 34.9813 23.3529 35.4365 23.5772 35.6356C23.8015 35.8348 24.2134 36.1843 24.4949 36.4119C24.7763 36.6395 25.1597 36.928 25.3514 37.0581C25.5431 37.1841 25.7062 37.2857 25.7184 37.2857C25.7307 37.2897 25.7715 37.1841 25.8082 37.054C25.849 36.924 25.9346 36.5541 25.9999 36.229C26.0651 35.9039 26.1467 35.4487 26.1834 35.213C26.2201 34.9772 26.2609 34.5465 26.2731 34.2579C26.2894 33.9409 26.2813 33.5507 26.2527 33.2825C26.2242 33.0387 26.1671 32.681 26.1222 32.49C26.0814 32.299 25.9958 31.9901 25.9387 31.7991C25.8775 31.6081 25.7429 31.2789 25.6328 31.0676C25.5227 30.8562 25.3922 30.6124 25.3432 30.5311C25.2902 30.4458 25.2576 30.3726 25.2698 30.3686C25.282 30.3604 25.7878 29.8687 26.3914 29.2672Z" fill="#F96A1C"/>
<path fill-rule="evenodd" clip-rule="evenodd" d="M29.1526 10.873C29.169 10.869 29.173 10.9177 29.1649 10.9787C29.1567 11.0437 29.067 11.2916 28.9609 11.5396C28.859 11.7834 28.7203 12.076 28.6591 12.1898C28.598 12.2995 28.496 12.4824 28.4307 12.5962C28.3655 12.706 28.2064 12.962 28.0718 13.1652C27.9372 13.3643 27.6966 13.7057 27.5334 13.9171C27.3703 14.1284 27.0889 14.4698 26.9135 14.673C26.7381 14.8721 26.3914 15.2541 26.1467 15.5183C25.902 15.7784 25.3106 16.3555 24.8416 16.7985C24.3685 17.2415 23.5732 17.973 23.0674 18.4323C22.5617 18.8875 21.9213 19.4808 21.6399 19.745C21.3585 20.0132 20.9873 20.379 20.8079 20.5578C20.6325 20.7407 20.3307 21.0618 20.1349 21.2731C19.9392 21.4844 19.6414 21.8339 19.4742 22.0453C19.3029 22.2566 19.0378 22.6142 18.8787 22.8378C18.7237 23.0613 18.4953 23.4271 18.3689 23.6506C18.2465 23.8741 18.0589 24.2683 17.961 24.5244C17.8591 24.7804 17.753 25.0568 17.7286 25.134C17.7041 25.2112 17.6552 25.4307 17.6184 25.6217C17.5858 25.8127 17.545 26.2313 17.5328 26.5564C17.5165 26.9913 17.5287 27.2676 17.5777 27.6131C17.6184 27.8691 17.6837 28.2064 17.7245 28.3649C17.7694 28.5194 17.8836 28.8526 18.1609 29.5435L17.0148 30.7018C16.3826 31.3399 15.8402 31.8601 15.8076 31.8601C15.7749 31.8601 15.6526 31.7056 15.5302 31.5146C15.4119 31.3236 15.2039 30.9538 15.0734 30.6896C14.9388 30.4295 14.7349 29.9459 14.6248 29.6126C14.5106 29.2834 14.3841 28.8404 14.3393 28.6291C14.2985 28.4178 14.2414 27.987 14.2128 27.6741C14.1843 27.3327 14.1761 26.8856 14.1924 26.5564C14.2047 26.2557 14.2332 25.9387 14.2495 25.8574C14.2659 25.7761 14.2863 25.7152 14.2985 25.7233C14.3107 25.7314 17.6511 22.3948 21.7215 18.3063C25.7919 14.2178 29.1363 10.873 29.1526 10.873V10.873ZM21.8765 22.8987C21.9132 22.8987 22.1089 22.9881 22.3129 23.0979C22.5168 23.2035 22.8961 23.4311 23.1571 23.6018C23.4222 23.7725 23.6466 23.9351 23.6588 23.9554C23.671 23.9757 23.1653 24.5203 22.5331 25.1665C21.905 25.8086 21.3626 26.3451 21.3299 26.3613C21.2892 26.3857 21.2117 26.3126 21.0608 26.1012C20.9466 25.9387 20.7712 25.6583 20.6774 25.4794C20.5795 25.3006 20.4734 25.0771 20.3756 24.8089L20.5061 24.6382C20.5795 24.5447 20.6855 24.4024 20.7426 24.3252C20.7997 24.2439 20.9221 24.0854 21.0077 23.9717C21.0975 23.8538 21.3136 23.5652 21.489 23.3295C21.6807 23.0735 21.8357 22.8987 21.8765 22.8987V22.8987ZM7.83396 32.299C7.86251 32.3112 7.87475 33.4939 7.86659 39.907L6.97338 40.793C6.12912 41.6302 6.0761 41.6749 5.92927 41.6749C5.84362 41.6749 5.77428 41.6627 5.77428 41.6464C5.77428 41.6261 5.72126 41.6221 5.66008 41.6261C5.5989 41.6343 5.46839 41.618 5.36643 41.5936C5.23999 41.557 5.11356 41.4758 4.96673 41.3335C4.84437 41.2156 4.71386 41.0368 4.66491 40.923C4.57926 40.7239 4.57518 40.6548 4.54256 38.1594C4.52216 36.7533 4.51808 35.5584 4.53032 35.5056C4.54256 35.4568 4.56295 35.4243 4.57926 35.4365C4.59966 35.4487 5.32564 34.7415 6.20253 33.8718C7.07535 32.998 7.80949 32.2909 7.83396 32.299Z" fill="#F85F24"/>
<path d="M22.4635 25.2396C23.0998 24.5935 23.6218 24.0529 23.63 24.0326C23.6382 24.0123 23.6626 23.996 23.683 23.996C23.7034 23.996 23.9073 24.1464 24.1357 24.3334C24.3682 24.5162 24.8617 24.9674 25.2329 25.3372C25.604 25.707 26.0975 26.2394 26.3341 26.5198C26.5666 26.8043 26.9377 27.2798 27.5495 28.1211L26.4483 29.2184C25.8447 29.824 25.3185 30.3279 25.2859 30.3482C25.2451 30.3685 25.1717 30.2954 25.0167 30.0841C24.8984 29.9215 24.5354 29.5192 24.2092 29.194C23.8829 28.8689 23.3241 28.3487 22.9652 28.0358C22.6063 27.7269 22.1128 27.2717 21.8681 27.0238C21.6233 26.7799 21.399 26.5402 21.3664 26.4955C21.3175 26.4182 21.3949 26.3329 22.4635 25.2396Z" fill="#F86420"/>
<path d="M15.8399 31.8479C15.8563 31.856 16.3702 31.3521 16.986 30.7303C17.6019 30.1125 18.1239 29.6045 18.1484 29.6045C18.1729 29.6045 18.2585 29.7183 18.336 29.8565C18.4135 29.9947 18.597 30.271 18.7398 30.4742C18.8866 30.6774 19.1966 31.0798 19.4332 31.3683C19.6697 31.6609 20.1184 32.173 20.4242 32.5063C20.7301 32.8436 21.1543 33.3028 21.7498 33.9328L19.58 36.0786L18.8458 35.3308C18.4421 34.9203 17.8547 34.3189 17.5407 33.9937C17.2267 33.6686 16.8066 33.2053 16.6026 32.9655C16.4028 32.7217 16.1377 32.3925 16.0194 32.234C15.9011 32.0714 15.8073 31.917 15.8073 31.8926C15.8073 31.8641 15.8195 31.8438 15.8399 31.8479Z" fill="#F86420"/>
<path d="M6.13294 41.6464C6.12479 41.6302 6.49594 41.2441 6.95682 40.793C7.41769 40.3378 7.80924 39.968 7.82555 39.968C7.84594 39.968 7.8541 40.1549 7.84186 40.3866C7.82963 40.6385 7.797 40.8621 7.75621 40.9555C7.71951 41.0368 7.62978 41.1709 7.56044 41.2522C7.48703 41.3335 7.35244 41.4432 7.26271 41.4961C7.17298 41.5448 6.98129 41.6099 6.83446 41.6302C6.68763 41.6546 6.47147 41.6749 6.35727 41.6749C6.23899 41.6749 6.13702 41.6627 6.13294 41.6464Z" fill="#F86420"/>
<path d="M25.0457 0.525807C25.3352 0.277897 25.6126 0.0503067 25.6534 0.0259221C25.6942 0.00153742 25.7513 -0.00659079 25.7757 0.00560153C25.8002 0.021858 25.9756 0.160038 26.1632 0.318538C26.3549 0.477038 26.673 0.769653 26.8729 0.972859C27.0727 1.17606 27.3827 1.52151 27.5662 1.74504C27.7457 1.96856 27.9986 2.30589 28.125 2.4969C28.2514 2.68791 28.4431 2.99678 28.7368 3.53325L27.4439 4.83376C26.7301 5.54904 26.1224 6.13834 26.0979 6.1424C26.0612 6.15053 26.0245 6.02861 25.9797 5.75631C25.947 5.54091 25.8818 5.21578 25.8369 5.03696C25.792 4.85814 25.7513 4.70777 25.7472 4.70371C25.7431 4.69558 25.5759 4.79718 25.372 4.92317C25.168 5.04916 24.8866 5.24423 24.7398 5.35803C24.5929 5.47182 24.2626 5.74005 24.0056 5.95545C23.7487 6.16679 23.2266 6.63822 22.8432 6.99586C22.4599 7.3535 21.8766 7.93874 21.5381 8.29231C21.2037 8.64995 20.8244 9.04824 20.6979 9.18235C20.5756 9.31647 20.3186 9.60096 20.1269 9.81229C19.9393 10.0236 19.6049 10.4097 19.3928 10.6658C19.1766 10.9218 18.8993 11.2794 18.7769 11.4583C18.6546 11.6371 18.4588 11.9581 18.3446 12.1695C18.2304 12.3808 18.0917 12.6815 18.0305 12.84C17.9734 12.9985 17.8796 13.2993 17.8225 13.5106C17.7695 13.722 17.7042 14.0633 17.6798 14.2625C17.6553 14.4616 17.6268 14.6689 17.6186 14.7177C17.6104 14.7705 17.5778 14.8111 17.5533 14.8111C17.5248 14.8111 16.8641 15.4451 16.0851 16.2214C14.9757 17.3268 14.6535 17.6276 14.6086 17.5951C14.576 17.5707 14.5066 17.339 14.4496 17.0261C14.3925 16.7375 14.3231 16.3067 14.2946 16.071C14.266 15.7947 14.2538 15.2826 14.2701 14.6283C14.2864 13.8195 14.3068 13.5391 14.3721 13.2465C14.4169 13.0473 14.5311 12.6328 14.6249 12.332C14.7228 12.0313 14.9104 11.5639 15.045 11.2957C15.1796 11.0275 15.3999 10.6332 15.5344 10.4219C15.669 10.2106 15.8199 9.98298 15.877 9.91389C15.9282 9.84726 16.0931 9.64074 16.2475 9.44749L16.2645 9.4262C16.4277 9.22706 16.6968 8.90599 16.8641 8.71498C17.0354 8.52397 17.6675 7.86558 18.2752 7.2519C18.883 6.63822 19.8373 5.65877 20.3961 5.07761C20.9549 4.49644 21.9093 3.52512 22.517 2.91957C23.1206 2.31401 23.8221 1.63124 24.0668 1.40365C24.3115 1.172 24.7561 0.777782 25.0457 0.525807Z" fill="#F6552B"/>
<path d="M4.65283 17.0423C5.03214 16.6644 6.92459 14.7746 8.85375 12.84C10.7829 10.9096 12.3736 9.32866 12.3899 9.32866C12.4103 9.3246 12.4347 9.37336 12.4511 9.43433C12.4633 9.49935 12.4674 9.85699 12.4511 10.239C12.4388 10.617 12.398 11.1209 12.3613 11.3566C12.3246 11.5924 12.2227 12.076 12.1329 12.4336C12.0432 12.7913 11.8841 13.2952 11.7822 13.5513C11.6802 13.8073 11.5497 14.108 11.4926 14.2218C11.4396 14.3316 11.3009 14.5795 11.1867 14.7705C11.0684 14.9615 10.8849 15.2338 10.7748 15.3801C10.6646 15.5264 10.4444 15.7906 10.2853 15.9653C10.1263 16.1401 9.68578 16.5709 9.30648 16.9204C8.92717 17.2699 8.51931 17.6723 8.40103 17.8186C8.28275 17.9649 8.13185 18.2087 8.06251 18.3672C7.99725 18.5217 7.91976 18.7777 7.89529 18.9362C7.86266 19.1313 7.85043 20.0579 7.86266 24.504L6.25979 26.1012C4.71401 27.6375 4.65283 27.6944 4.59981 27.6049C4.5631 27.5318 4.54679 26.5564 4.53047 18.8143L4.44074 18.5501C4.3918 18.4038 4.29392 18.2047 4.22866 18.1031L4.22413 18.0964C4.1556 17.996 4.0712 17.8723 3.95947 17.7292L4.65283 17.0423Z" fill="#F6552B"/>
<path d="M23.7607 40.3134L26.7422 37.3182C28.3858 35.6681 29.7318 34.3188 29.7358 34.3188C29.744 34.3188 29.7481 34.4895 29.7522 34.6968C29.7562 34.9 29.7399 35.2861 29.7155 35.5503C29.6951 35.8104 29.638 36.1965 29.5931 36.4037C29.5482 36.6069 29.43 37.0255 29.3321 37.3263C29.2342 37.627 29.0466 38.0944 28.912 38.3626C28.7815 38.6309 28.549 39.0332 28.4062 39.2567C28.2594 39.4803 28.0228 39.8095 27.8801 39.9883C27.7373 40.1671 27.4274 40.5125 27.1908 40.7564C26.9502 40.9962 26.5423 41.3782 26.2772 41.5977C26.0162 41.8212 25.7674 42 25.7266 42C25.6899 42 25.3636 41.748 25.0047 41.4351C24.6458 41.1262 24.2175 40.7442 23.7607 40.3134Z" fill="#FA7018"/>
<path fill-rule="evenodd" clip-rule="evenodd" d="M28.7609 3.60233C28.7895 3.63078 28.9078 3.88276 29.026 4.16318C29.1402 4.4436 29.2993 4.89065 29.3768 5.15888C29.4543 5.42712 29.5522 5.82133 29.597 6.03267C29.6419 6.244 29.6949 6.65448 29.7194 6.94709C29.7439 7.24783 29.752 7.75585 29.7357 8.12568C29.7235 8.48332 29.6745 8.97508 29.6337 9.22299C29.5889 9.4709 29.5195 9.80822 29.4747 9.97485C29.4257 10.1415 29.3564 10.4056 29.3197 10.5601C29.2748 10.7308 29.2218 10.8486 29.181 10.8649C29.1443 10.8771 25.7877 14.23 21.7172 18.3144C16.827 23.2238 14.3065 25.7273 14.2779 25.6989C14.2507 25.6718 14.263 25.5201 14.3146 25.2437C14.3554 25.0161 14.4778 24.5081 14.5838 24.1179C14.694 23.7278 14.8652 23.2116 14.9672 22.9678C15.0692 22.728 15.1548 22.5207 15.1548 22.5004C15.1548 22.4842 15.2772 22.2606 15.4199 22.0046C15.5627 21.7486 15.8156 21.3422 15.9787 21.1024C16.1418 20.8667 16.4804 20.4277 16.7292 20.127C16.9779 19.8303 17.4388 19.3304 17.7488 19.0175C18.0628 18.7045 18.5931 18.2006 18.9316 17.8999C19.266 17.5991 19.8697 17.0667 20.2734 16.7213C20.6772 16.3758 21.2523 15.8719 21.5582 15.6036C21.86 15.3395 22.3821 14.8518 22.7165 14.5266C23.0469 14.2015 23.4792 13.7545 23.675 13.5309C23.8707 13.3074 24.1603 12.9579 24.3153 12.7588C24.4703 12.5596 24.6905 12.2467 24.8047 12.0679C24.9189 11.889 25.1065 11.568 25.2207 11.3566C25.3309 11.1453 25.4858 10.8161 25.5633 10.6251C25.6408 10.4341 25.7428 10.1699 25.7917 10.0358C25.8407 9.9017 25.9263 9.56031 25.9834 9.27176C26.0405 8.98727 26.1058 8.56867 26.1303 8.33701C26.1588 8.08098 26.167 7.6705 26.1506 7.2519C26.1343 6.88207 26.1058 6.49597 26.0813 6.39031C26.0609 6.28464 26.0568 6.17897 26.0732 6.15459C26.0895 6.12614 26.118 6.10989 26.1343 6.10989C26.1547 6.11395 26.738 5.53685 27.4395 4.83376C28.4591 3.80554 28.7242 3.56169 28.7609 3.60233V3.60233ZM17.5449 14.8111C17.5775 14.8111 17.5857 14.868 17.5734 14.9818C17.5612 15.0794 17.5163 15.2744 17.4715 15.4208C17.4266 15.5671 17.3083 15.8475 17.2104 16.0507C17.1085 16.258 16.9005 16.575 16.7332 16.7782C16.5742 16.9773 16.2846 17.2862 16.0929 17.4569C15.9012 17.6316 15.5586 17.9202 15.3261 18.1031C15.0977 18.2819 14.8816 18.4282 14.8489 18.4282C14.8163 18.4282 14.7755 18.4038 14.7592 18.3754C14.7429 18.351 14.698 18.1722 14.6572 17.9811C14.6165 17.7901 14.5838 17.6316 14.5838 17.6235C14.5838 17.6194 14.6083 17.6194 14.6328 17.6235C14.6613 17.6276 15.318 16.9976 16.0888 16.2214C16.8637 15.4451 17.5163 14.8111 17.5449 14.8111V14.8111ZM7.8338 24.5772C7.86235 24.5894 7.87866 25.833 7.89498 32.1852L6.25539 33.819C5.34995 34.7171 4.58726 35.4446 4.55871 35.4324C4.522 35.4202 4.50977 34.9 4.50977 33.0265C4.50977 31.7137 4.522 29.9459 4.53424 29.0965C4.55463 27.9382 4.57094 27.5684 4.60765 27.6212C4.64436 27.6781 4.86868 27.4749 6.22276 26.1256C7.08334 25.2681 7.80933 24.5691 7.8338 24.5772V24.5772Z" fill="#F75A27"/>
<path d="M4.91781 0.525806C5.04017 0.485164 5.28081 0.428267 5.44803 0.403882C5.61525 0.375434 5.94561 0.351049 6.18217 0.346985C6.41873 0.346985 6.7654 0.371369 6.9571 0.403882C7.14879 0.432331 7.40574 0.493293 7.5281 0.537998C7.65045 0.578639 7.89109 0.684306 8.05831 0.769652C8.22553 0.854998 8.5355 1.05008 8.73943 1.20451C9.05756 1.43617 9.11058 1.49306 9.08203 1.54996C9.05756 1.5906 7.01828 3.6511 4.54666 6.13427C2.07097 8.61744 0.0357665 10.6373 0.0235308 10.6251C0.0112951 10.6129 0.00721652 10.2024 0.0112951 9.71068C0.0194522 9.02385 0.0398451 8.70279 0.105102 8.32889C0.149966 8.06066 0.251931 7.5689 0.333502 7.23158C0.410995 6.89832 0.586373 6.29277 0.725045 5.89042C0.859637 5.48808 1.05133 4.976 1.14922 4.75248C1.2471 4.52895 1.43064 4.14286 1.55707 3.89901C1.68759 3.65517 1.90783 3.26908 2.05466 3.04555C2.20149 2.82203 2.41357 2.52128 2.52369 2.37497C2.63789 2.22867 2.87853 1.95637 3.05799 1.77349C3.24152 1.58654 3.52702 1.32643 3.69424 1.19638C3.86146 1.06633 4.15512 0.879383 4.34681 0.77778C4.53851 0.680242 4.79546 0.566447 4.91781 0.525806Z" fill="#F44734"/>
<path fill-rule="evenodd" clip-rule="evenodd" d="M43.0198 7.60957C43.0483 7.6177 43.0606 10.3325 43.0565 15.4045C43.0524 20.5659 43.0646 23.1832 43.0932 23.1832C43.1136 23.1832 43.656 22.6102 44.2923 21.9112C44.9285 21.2162 45.6464 20.4156 45.8952 20.1351C46.1399 19.8547 46.7884 19.1069 47.339 18.4689C47.8855 17.8308 48.481 17.1318 48.9867 16.5222L52.1354 16.5181C54.2114 16.5181 55.2881 16.5303 55.2881 16.5587C55.2881 16.5791 55.0271 16.8961 54.7089 17.2578C54.3867 17.6235 53.8321 18.2494 53.4731 18.6517C53.1142 19.0541 52.4535 19.7856 52.0049 20.2774C51.5562 20.7691 50.9159 21.4641 50.5774 21.8217C50.2429 22.1794 49.4517 22.9881 47.6816 24.7682L48.3505 25.4307C48.7216 25.7924 49.2722 26.3735 49.574 26.719C49.8799 27.0644 50.3326 27.5968 50.5814 27.8976C50.8261 28.1983 51.2503 28.7307 51.5236 29.0762C51.7928 29.4216 52.2006 29.9622 52.4331 30.2751C52.6615 30.588 53.1469 31.2911 53.5139 31.8398C53.8769 32.3884 54.35 33.1281 54.5662 33.4857C54.7783 33.8434 55.0923 34.392 55.2636 34.705C55.4349 35.0179 55.5736 35.2861 55.5736 35.3024C55.5736 35.3227 54.191 35.3349 49.4354 35.3308L49.1947 34.9366C49.0601 34.7212 48.7053 34.1563 48.4035 33.6889C48.1017 33.2216 47.6979 32.6079 47.5062 32.3275C47.3145 32.047 47.0208 31.6284 46.8536 31.3927C46.6823 31.157 46.3724 30.7384 46.1562 30.458C45.9441 30.1775 45.5485 29.6858 45.2793 29.3607C45.006 29.0396 44.5655 28.5478 44.2964 28.2674C44.0272 27.9911 43.656 27.6294 43.4684 27.4627C43.2849 27.3002 43.1136 27.1742 43.0932 27.1864C43.0646 27.1986 43.0524 28.6007 43.0524 35.3349H37.7095V8.43052L37.8604 8.4102C37.946 8.39801 38.7046 8.28015 39.5448 8.14603C40.385 8.01192 41.5025 7.8331 42.0287 7.74775C42.5507 7.6624 42.9994 7.60144 43.0198 7.60957V7.60957ZM79.4006 7.58112C79.421 7.57706 79.4373 9.49125 79.4536 16.0914H83.002C84.9515 16.0914 88.6141 16.0832 91.1387 16.071C94.8053 16.0548 95.8209 16.0629 96.1961 16.1036C96.4531 16.1361 96.8569 16.197 97.0934 16.2377C97.33 16.2824 97.7174 16.3718 97.9581 16.4409C98.2028 16.5059 98.5372 16.6116 98.7045 16.6807C98.8717 16.7457 99.1613 16.8757 99.3448 16.9692C99.5324 17.0627 99.8383 17.2415 100.03 17.3675C100.222 17.4935 100.54 17.7536 100.744 17.9446C100.944 18.1397 101.217 18.4404 101.343 18.6152C101.47 18.794 101.665 19.111 101.78 19.3223C101.89 19.5337 102.045 19.8913 102.122 20.1148C102.2 20.3383 102.31 20.7326 102.367 20.9886C102.428 21.2446 102.506 21.6673 102.546 21.9233C102.608 22.3501 102.616 22.9556 102.628 28.5966C102.64 34.4814 102.636 34.8066 102.567 34.8269C102.53 34.835 102 34.9366 101.396 35.0504C100.793 35.1642 100.03 35.3024 99.7037 35.3552C99.3774 35.4081 98.7819 35.4893 98.3782 35.534C97.9744 35.5787 97.3871 35.6356 97.073 35.66C96.759 35.6803 95.9677 35.7129 95.3192 35.7251C94.5606 35.7413 93.8795 35.7372 93.4227 35.7047C93.0312 35.6803 92.452 35.6194 92.138 35.5747C91.8239 35.53 91.3549 35.4487 91.0979 35.3918C90.841 35.3349 90.3801 35.1967 90.0783 35.087C89.7765 34.9773 89.3441 34.7862 89.1198 34.6603C88.8955 34.5343 88.5774 34.327 88.4101 34.201C88.2429 34.075 87.9615 33.819 87.782 33.628C87.6067 33.437 87.3579 33.12 87.2314 32.9168C87.1091 32.7135 86.9378 32.3884 86.8562 32.1852C86.7746 31.982 86.6768 31.7097 86.64 31.5756C86.6033 31.4415 86.5422 31.1773 86.5055 30.9863C86.4647 30.779 86.432 30.3157 86.4198 29.828C86.4035 29.194 86.4157 28.9055 86.4688 28.5275C86.5055 28.2593 86.5829 27.8935 86.64 27.7147C86.6971 27.5359 86.8073 27.2514 86.8848 27.0848C86.9623 26.9181 87.1295 26.6255 87.2559 26.4386C87.3824 26.2516 87.5985 25.9753 87.7372 25.829C87.8759 25.6826 88.1124 25.4591 88.2674 25.3331C88.4224 25.2071 88.716 25.0039 88.9159 24.8861C89.1157 24.7642 89.4787 24.5772 89.7194 24.4715C89.9641 24.3659 90.376 24.2196 90.637 24.1424C90.9022 24.0651 91.2937 23.9635 91.5058 23.9188C91.7179 23.8741 92.1135 23.8091 92.3827 23.7766C92.6519 23.74 93.2106 23.6912 93.6266 23.6669C94.165 23.6343 94.6177 23.6343 95.2173 23.6669C95.6782 23.6912 96.2532 23.7359 96.502 23.7685C96.7508 23.801 97.0404 23.8497 97.1546 23.8741C97.2647 23.8985 97.3912 23.927 97.4279 23.9351C97.4972 23.9554 97.5013 23.9026 97.489 23.171C97.4809 22.407 97.4768 22.3867 97.3667 22.1469C97.2933 21.9965 97.1628 21.8177 97.0159 21.6795C96.8854 21.5576 96.6733 21.3991 96.5387 21.3259C96.4082 21.2568 96.1309 21.1471 95.564 20.9683H79.4536V24.6057C79.4536 27.8732 79.4618 28.2877 79.527 28.6698C79.5637 28.9055 79.6331 29.2306 79.6779 29.3891C79.7228 29.5517 79.8411 29.8443 79.939 30.0394C80.0369 30.2385 80.1796 30.462 80.2571 30.5393C80.3305 30.6165 80.4773 30.7384 80.5752 30.8075C80.6772 30.8806 80.8485 30.9741 80.9627 31.0188C81.0728 31.0635 81.3053 31.1285 81.4725 31.1611C81.6397 31.1936 81.9334 31.2342 82.1251 31.2505C82.3168 31.2627 82.7287 31.2545 83.0428 31.2302C83.3568 31.2058 83.8422 31.1529 84.1236 31.1042C84.405 31.0595 84.7354 30.9985 84.8577 30.966C85.0331 30.9213 85.0902 30.9213 85.1106 30.9579C85.1269 30.9863 85.1432 31.0838 85.1432 31.1773C85.1432 31.2749 85.1881 31.6203 85.2452 31.9495C85.3104 32.3234 85.4206 32.7623 85.5348 33.0996C85.6367 33.4004 85.8039 33.8109 85.9059 34.0141C86.0079 34.2173 86.1629 34.4896 86.2526 34.6237C86.3423 34.7578 86.3994 34.8797 86.379 34.896C86.3627 34.9082 86.0976 35.0057 85.7958 35.1032C85.494 35.2048 84.9882 35.3512 84.6742 35.4284C84.3601 35.5056 83.9115 35.5991 83.6749 35.6356C83.4384 35.6682 82.9326 35.7169 82.5533 35.7454C82.1455 35.7738 81.5663 35.782 81.1462 35.7657C80.7547 35.7494 80.2204 35.7088 79.9634 35.6763C79.7065 35.6438 79.319 35.5787 79.1069 35.53C78.8949 35.4853 78.5645 35.3959 78.3728 35.3349C78.1811 35.2739 77.8426 35.1358 77.6183 35.0342C77.3939 34.9285 77.0269 34.7212 76.8025 34.5749C76.5619 34.4123 76.2356 34.1441 76.0031 33.9165C75.7747 33.6849 75.5056 33.3597 75.3424 33.12C75.1956 32.8964 75.008 32.5672 74.9223 32.3884C74.8408 32.2096 74.7021 31.852 74.6164 31.5959C74.5308 31.3399 74.4166 30.8725 74.3595 30.5596C74.3024 30.2466 74.2208 29.763 74.1841 29.4826C74.1229 29.0193 74.1148 28.0561 74.0699 8.44271L74.3962 8.39394C74.5756 8.36549 75.3547 8.24357 76.1296 8.11758C76.9045 7.99566 77.9486 7.82497 78.4544 7.73962C78.9601 7.65428 79.3843 7.58519 79.4006 7.58112V7.58112ZM93.8102 27.3327C93.6552 27.3571 93.4146 27.414 93.28 27.4587C93.1454 27.5034 92.917 27.5968 92.7701 27.6659C92.6029 27.7431 92.4112 27.8813 92.2522 28.0358C92.1053 28.1821 91.9585 28.3731 91.8973 28.5072C91.8402 28.6291 91.775 28.8323 91.7505 28.9543C91.726 29.0762 91.7097 29.2875 91.7097 29.4216C91.7097 29.5557 91.7301 29.7833 91.7546 29.9296C91.779 30.0759 91.8484 30.3035 91.9136 30.4377C91.9789 30.5718 92.1094 30.7628 92.2114 30.8644C92.3093 30.966 92.4806 31.096 92.5907 31.157C92.7008 31.2139 92.9292 31.3114 93.0964 31.3683C93.2636 31.4252 93.5859 31.4984 93.8102 31.535C94.0916 31.5756 94.5239 31.5959 95.1969 31.5959C95.7353 31.5959 96.4245 31.5756 96.7263 31.5553C97.0282 31.5309 97.3259 31.5065 97.3871 31.4943L97.5013 31.474V27.4302C97.0118 27.353 96.6937 27.3124 96.4816 27.292C96.2695 27.2717 95.8821 27.2433 95.6251 27.2351C95.3682 27.2229 94.9195 27.2311 94.6259 27.2514C94.3322 27.2676 93.9652 27.3042 93.8102 27.3327V27.3327ZM110.275 7.60551C110.304 7.6177 110.316 10.3528 110.312 15.4045C110.308 20.5659 110.32 23.1832 110.349 23.1832C110.373 23.1832 110.687 22.8581 111.05 22.4598C111.417 22.0656 112.037 21.3828 112.429 20.948C112.824 20.5131 113.55 19.6881 114.044 19.1191C114.533 18.5501 115.235 17.7292 116.263 16.5181H119.403C121.128 16.5181 122.552 16.5303 122.56 16.5506C122.568 16.5669 122.372 16.8066 122.128 17.0871C121.879 17.3675 121.345 17.969 120.937 18.4282C120.533 18.8875 119.729 19.7734 119.158 20.3993C118.587 21.0252 117.906 21.7567 117.653 22.025C117.397 22.2932 116.683 23.0166 114.949 24.7479L115.659 25.4591C116.047 25.8493 116.597 26.4345 116.879 26.7596C117.16 27.0848 117.6 27.605 117.857 27.9179C118.114 28.2308 118.526 28.7429 118.771 29.0559C119.016 29.3688 119.444 29.9337 119.721 30.3157C119.999 30.6978 120.472 31.3724 120.77 31.8194C121.067 32.2665 121.438 32.8436 121.593 33.0996C121.748 33.3557 121.981 33.7418 122.103 33.9531C122.226 34.1644 122.438 34.5465 122.576 34.7984C122.715 35.0463 122.829 35.2739 122.829 35.2943C122.829 35.3227 121.781 35.3349 116.711 35.3349L116.654 35.2455C116.622 35.1927 116.336 34.7415 116.018 34.2376C115.696 33.7336 115.214 32.994 114.945 32.5916C114.676 32.1893 114.236 31.5593 113.966 31.1895C113.697 30.8197 113.236 30.2182 112.939 29.8484C112.645 29.4785 112.229 28.9868 112.013 28.751C111.801 28.5153 111.43 28.1292 111.181 27.8895C110.936 27.6537 110.659 27.3936 110.561 27.3124C110.467 27.2311 110.373 27.1742 110.349 27.1864C110.32 27.1986 110.308 28.6007 110.308 35.3349H104.965L104.949 8.44271L105.271 8.39394C105.45 8.36549 106.34 8.22325 107.249 8.07694C108.159 7.9347 109.203 7.76401 109.57 7.70305C109.937 7.64208 110.255 7.59738 110.275 7.60551V7.60551ZM62.9558 16.0385C63.3025 16.0345 63.8001 16.0507 64.057 16.0751C64.314 16.0954 64.7463 16.1604 65.0155 16.2133C65.2847 16.2661 65.717 16.3758 65.9739 16.4531C66.2309 16.5303 66.6551 16.6888 66.912 16.8026C67.169 16.9123 67.5727 17.1155 67.8093 17.2537C68.0459 17.3878 68.4007 17.6195 68.6046 17.7698C68.8086 17.9202 69.1797 18.2413 69.4367 18.4892C69.6895 18.733 70.024 19.0907 70.1749 19.2817C70.3258 19.4727 70.5542 19.7856 70.6806 19.9848C70.8071 20.1798 71.0191 20.5537 71.1497 20.8179C71.2842 21.078 71.48 21.5129 71.582 21.7811C71.688 22.0493 71.8348 22.5086 71.9083 22.7971C71.9858 23.0857 72.0836 23.5368 72.1285 23.7928C72.1734 24.0489 72.2305 24.5366 72.259 24.8698C72.2876 25.2478 72.2998 25.7964 72.2835 26.3126C72.2713 26.7718 72.2305 27.3652 72.1938 27.6334C72.1571 27.9016 72.0755 28.369 72.0062 28.6698C71.9409 28.9705 71.8471 29.3444 71.7981 29.5029C71.7533 29.6614 71.6391 29.9906 71.5412 30.2344C71.4474 30.4783 71.2638 30.8888 71.1374 31.1407C71.011 31.3887 70.8071 31.7544 70.6806 31.9536C70.5542 32.1486 70.3176 32.4697 70.1545 32.6729C69.9913 32.8761 69.6773 33.2134 69.457 33.4248C69.2327 33.6361 68.8942 33.9287 68.6944 34.075C68.4986 34.2213 68.2049 34.4205 68.0418 34.518C67.8827 34.6156 67.5727 34.7862 67.3607 34.8919C67.1486 34.9935 66.8101 35.1479 66.6061 35.2252C66.4022 35.3024 66.027 35.4243 65.77 35.4934C65.5131 35.5625 65.0807 35.656 64.8116 35.7047C64.4363 35.7698 64.0896 35.7982 63.3433 35.8145C62.7274 35.8267 62.189 35.8145 61.8954 35.786C61.6384 35.7576 61.251 35.7007 61.0389 35.66C60.8268 35.6153 60.4312 35.5178 60.162 35.4406C59.8928 35.3633 59.4523 35.2089 59.1831 35.0911C58.9139 34.9773 58.5469 34.7984 58.3674 34.6968C58.188 34.5952 57.9025 34.4205 57.7352 34.3067C57.568 34.1929 57.2907 33.9897 57.1235 33.8515C56.9562 33.7093 56.634 33.4085 56.4056 33.1769C56.1813 32.9452 55.8795 32.5998 55.7408 32.4087C55.5981 32.2177 55.386 31.9089 55.2677 31.7178C55.1494 31.5268 54.9781 31.218 54.8802 31.0269C54.7864 30.8359 54.607 30.4295 54.4887 30.1247C54.3663 29.8158 54.2154 29.3566 54.1461 29.1087C54.0808 28.8567 53.983 28.4015 53.9259 28.1008C53.8688 27.8 53.8035 27.288 53.775 26.9628C53.7464 26.593 53.7342 26.0565 53.7505 25.5201C53.7668 24.9755 53.8076 24.4634 53.8606 24.0976C53.9095 23.7847 54.0197 23.2564 54.1053 22.9191C54.191 22.5858 54.3419 22.0981 54.4438 21.8421C54.5417 21.586 54.7293 21.1634 54.8599 20.9073C54.9904 20.6513 55.2147 20.2571 55.3615 20.0335C55.5083 19.81 55.7286 19.5011 55.855 19.3426C55.9774 19.1841 56.2384 18.8956 56.4301 18.6965C56.6218 18.5014 56.9399 18.2047 57.1438 18.0421C57.3478 17.8796 57.6659 17.6438 57.8576 17.5179C58.0493 17.3878 58.4816 17.148 58.8161 16.9855C59.1546 16.8188 59.591 16.6278 59.7949 16.5587C59.9988 16.4896 60.3741 16.3799 60.631 16.3149C60.888 16.2499 61.2918 16.1686 61.5283 16.132C61.7649 16.0995 62.0381 16.067 62.1401 16.0588C62.2421 16.0507 62.6091 16.0426 62.9558 16.0385V16.0385ZM61.9973 20.7488C61.8179 20.7935 61.5242 20.9073 61.3448 21.0008C61.0878 21.1308 60.9288 21.2568 60.6106 21.5779C60.3333 21.8543 60.1416 22.0859 60.0152 22.3094C59.9091 22.4883 59.7582 22.7971 59.6807 23.0003C59.5991 23.2035 59.4931 23.5124 59.4482 23.6912C59.4034 23.8701 59.334 24.2196 59.2973 24.4634C59.2443 24.7967 59.2239 25.1624 59.2239 25.9062C59.2239 26.6702 59.2443 27.0116 59.3014 27.3693C59.3422 27.6253 59.4115 27.9748 59.4564 28.1414C59.5013 28.3081 59.5991 28.6088 59.6766 28.812C59.7541 29.0152 59.9214 29.3525 60.0478 29.5639C60.2069 29.828 60.3863 30.0597 60.6269 30.2995C60.8227 30.4905 61.096 30.7181 61.2428 30.7994C61.3896 30.8847 61.6629 31.0066 61.8546 31.0676C62.0463 31.1326 62.393 31.2058 62.6295 31.2302C62.9477 31.2667 63.1516 31.2667 63.4248 31.2342C63.6288 31.2098 63.902 31.1611 64.0366 31.1285C64.1712 31.092 64.3996 31.0107 64.5464 30.9416C64.6933 30.8725 64.9217 30.7384 65.0563 30.6449C65.1909 30.5474 65.3907 30.3726 65.5008 30.2507C65.611 30.1288 65.7782 29.9134 65.872 29.7671C65.9658 29.6208 66.1045 29.385 66.1779 29.2387C66.2513 29.0924 66.3818 28.7632 66.4675 28.5072C66.549 28.2512 66.651 27.8651 66.6836 27.6537C66.7203 27.4424 66.7652 27.0848 66.7897 26.8612C66.8101 26.6377 66.8304 26.2069 66.8304 25.9062C66.8304 25.6054 66.8141 25.1665 66.7897 24.9308C66.7652 24.6951 66.7122 24.313 66.6673 24.0773C66.6224 23.8416 66.5409 23.5043 66.4797 23.3255C66.4226 23.1466 66.3043 22.854 66.2227 22.6752C66.1412 22.4964 65.9903 22.2322 65.8924 22.0859C65.7945 21.9396 65.6191 21.7242 65.509 21.6023C65.3948 21.4844 65.1909 21.3056 65.0563 21.2081C64.9217 21.1146 64.6933 20.9805 64.5464 20.9155C64.3996 20.8504 64.1631 20.7651 64.0162 20.7244C63.8368 20.6757 63.5554 20.6513 63.1393 20.6432C62.8049 20.635 62.4827 20.6391 62.4256 20.6472C62.3685 20.6594 62.1768 20.7041 61.9973 20.7488V20.7488ZM131.027 16.0548C131.594 16.0629 132.108 16.0914 132.373 16.132C132.61 16.1686 132.993 16.2458 133.23 16.3027C133.466 16.3596 133.813 16.4571 134.004 16.5181C134.196 16.5791 134.543 16.7213 134.779 16.831C135.016 16.9408 135.375 17.1277 135.575 17.2496C135.775 17.3716 136.117 17.6113 136.329 17.782C136.541 17.9527 136.864 18.2453 137.047 18.4323C137.227 18.6192 137.492 18.9281 137.634 19.1191C137.773 19.3101 137.981 19.619 138.091 19.81C138.205 20.001 138.381 20.3383 138.479 20.5619C138.581 20.7854 138.723 21.1512 138.801 21.3747C138.874 21.5982 138.98 21.9559 139.033 22.1672C139.09 22.3785 139.164 22.728 139.201 22.9394C139.237 23.1507 139.294 23.5652 139.327 23.8538C139.364 24.1424 139.4 24.7398 139.417 25.1746C139.429 25.6461 139.421 26.2719 139.392 26.719C139.364 27.1335 139.335 27.5196 139.307 27.6944H133.25C127.507 27.6944 127.193 27.6984 127.193 27.7675C127.193 27.8041 127.23 27.9911 127.279 28.1821C127.324 28.3731 127.434 28.682 127.524 28.873C127.613 29.064 127.793 29.3525 127.919 29.5192C128.046 29.6858 128.254 29.9053 128.376 30.0109C128.498 30.1166 128.739 30.2913 128.906 30.4011C129.073 30.5108 129.379 30.6734 129.579 30.7587C129.779 30.84 130.114 30.9538 130.313 31.0066C130.513 31.0595 130.88 31.1367 131.129 31.1733C131.455 31.222 131.831 31.2423 132.495 31.2423C133.168 31.2383 133.613 31.2139 134.168 31.1529C134.584 31.1042 135.142 31.0188 135.412 30.966C135.681 30.9091 136.129 30.8034 136.411 30.7262C136.692 30.649 137.039 30.5433 137.186 30.4864C137.333 30.4336 137.483 30.3767 137.524 30.3604C137.581 30.3401 137.602 30.3726 137.634 30.5514C137.655 30.6652 137.81 31.604 137.981 32.6323C138.148 33.6605 138.295 34.5343 138.307 34.5749C138.324 34.6277 138.271 34.6724 138.075 34.7619C137.932 34.8309 137.545 34.9691 137.206 35.0707C136.872 35.1764 136.28 35.3227 135.901 35.3959C135.522 35.4731 134.877 35.5787 134.473 35.6356C134.07 35.6925 133.466 35.7576 133.128 35.786C132.744 35.8145 132.075 35.8267 131.333 35.8104C130.444 35.7941 130.02 35.7698 129.62 35.7088C129.326 35.6641 128.817 35.5584 128.478 35.4771C128.144 35.3959 127.609 35.2292 127.295 35.1032C126.981 34.9813 126.533 34.7781 126.296 34.6521C126.059 34.5302 125.7 34.3189 125.501 34.1848C125.301 34.0506 125.003 33.8352 124.848 33.7052C124.693 33.5792 124.387 33.2947 124.171 33.0753C123.955 32.8517 123.669 32.5266 123.539 32.3478C123.404 32.169 123.2 31.8682 123.086 31.6772C122.972 31.4862 122.784 31.1407 122.674 30.905C122.564 30.6693 122.405 30.2751 122.323 30.0312C122.238 29.7874 122.12 29.381 122.054 29.1371C121.989 28.8933 121.899 28.434 121.854 28.1211C121.805 27.8082 121.744 27.2148 121.72 26.8003C121.683 26.2191 121.683 25.8737 121.72 25.2762C121.748 24.8495 121.805 24.2643 121.85 23.9757C121.895 23.6872 121.973 23.2848 122.022 23.0816C122.066 22.8784 122.189 22.4761 122.287 22.1875C122.385 21.899 122.609 21.3666 122.788 21.0089C122.964 20.6513 123.237 20.1677 123.392 19.9319C123.543 19.6962 123.808 19.3386 123.975 19.1394C124.147 18.9403 124.457 18.607 124.669 18.4079C124.881 18.2088 125.219 17.9202 125.419 17.7698C125.623 17.6195 125.978 17.3837 126.214 17.2415C126.451 17.1033 126.867 16.892 127.144 16.7741C127.418 16.6563 127.887 16.4856 128.184 16.4002C128.478 16.3149 128.951 16.2052 129.233 16.1564C129.514 16.1117 129.824 16.067 129.926 16.0548C130.028 16.0467 130.521 16.0467 131.027 16.0548V16.0548ZM129.804 20.5416C129.702 20.57 129.502 20.6391 129.355 20.7001C129.208 20.761 128.972 20.8911 128.825 20.9886C128.678 21.0861 128.462 21.269 128.339 21.391C128.217 21.5169 128.05 21.7201 127.968 21.8421C127.883 21.964 127.772 22.155 127.715 22.2688C127.658 22.3785 127.556 22.6468 127.487 22.8581C127.413 23.0694 127.32 23.3986 127.275 23.5896C127.23 23.7806 127.193 23.9595 127.193 23.9839C127.193 24.0245 127.927 24.0367 130.721 24.0367H134.249C134.249 23.8619 134.221 23.6506 134.188 23.4474C134.151 23.2442 134.07 22.9069 134.004 22.6955C133.939 22.4842 133.805 22.1713 133.707 22.0046C133.605 21.838 133.438 21.6023 133.327 21.4804C133.217 21.3584 133.026 21.1837 132.903 21.0902C132.781 20.9927 132.54 20.8464 132.373 20.7651C132.206 20.6797 131.928 20.5781 131.761 20.5334C131.574 20.4887 131.264 20.4481 130.966 20.44C130.697 20.4318 130.366 20.44 130.232 20.4603C130.097 20.4765 129.905 20.5131 129.804 20.5416ZM149.054 16.1198C149.132 16.1157 149.474 16.132 149.809 16.1523C150.147 16.1726 150.649 16.2214 150.931 16.258C151.212 16.2905 151.689 16.3677 151.991 16.4206C152.293 16.4734 152.819 16.5953 153.153 16.6888C153.492 16.7782 153.79 16.8757 153.818 16.9001C153.843 16.9245 153.879 17.0098 153.892 17.0871C153.904 17.1643 154.026 17.6113 154.161 18.0828C154.295 18.5542 154.52 19.3183 154.662 19.7897C154.805 20.2611 155.042 21.0374 155.193 21.5169C155.339 21.9965 155.682 23.041 155.947 23.8335C156.212 24.626 156.587 25.7152 156.779 26.2516C156.971 26.7881 157.26 27.5806 157.424 28.0154C157.587 28.4503 157.738 28.812 157.762 28.8201C157.787 28.8283 157.905 28.5438 158.031 28.1943C158.158 27.8407 158.427 27.0401 158.631 26.4142C158.835 25.7883 159.1 24.947 159.222 24.5447C159.349 24.1424 159.561 23.4271 159.699 22.9597C159.838 22.4923 160.022 21.8583 160.107 21.5576C160.197 21.2568 160.376 20.6147 160.511 20.1351C160.646 19.6556 160.846 18.924 160.956 18.5095C161.07 18.095 161.221 17.5382 161.29 17.2699C161.359 17.0017 161.433 16.7213 161.494 16.5181H164.247C165.76 16.5181 167 16.5303 167 16.5465C167 16.5669 166.947 16.7619 166.882 16.9855C166.817 17.209 166.67 17.7007 166.551 18.0828C166.433 18.4648 166.221 19.1476 166.074 19.6068C165.927 20.0661 165.642 20.9439 165.442 21.5576C165.238 22.1713 164.867 23.2686 164.61 23.996C164.357 24.7235 164.068 25.5445 163.97 25.8249C163.868 26.1053 163.672 26.6336 163.533 27.0035C163.395 27.3733 163.187 27.9301 163.064 28.243C162.942 28.556 162.652 29.2875 162.42 29.8687C162.187 30.4498 161.926 31.0879 161.841 31.2911C161.759 31.4943 161.563 31.9495 161.412 32.3071C161.262 32.6648 160.923 33.4329 160.666 34.0141C160.409 34.5952 160.054 35.3715 159.883 35.7413C159.712 36.1111 159.442 36.6598 159.283 36.9605C159.124 37.2613 158.892 37.684 158.77 37.8953C158.643 38.1066 158.431 38.4439 158.296 38.6471C158.162 38.8503 157.921 39.1755 157.762 39.3787C157.599 39.5819 157.277 39.9273 157.044 40.1549C156.812 40.3785 156.481 40.6589 156.314 40.7767C156.147 40.8946 155.862 41.0694 155.682 41.1628C155.503 41.2604 155.172 41.4107 154.948 41.492C154.724 41.5733 154.348 41.6871 154.112 41.7359C153.875 41.7887 153.5 41.8537 153.276 41.8822C153.043 41.9147 152.452 41.935 151.909 41.935C151.228 41.9309 150.8 41.9106 150.421 41.8619C150.127 41.8212 149.67 41.7359 149.401 41.6708C149.132 41.6017 148.728 41.492 148.504 41.4229C148.279 41.3579 148.051 41.2766 147.994 41.2482C147.892 41.1913 147.892 41.1913 147.945 40.9352C147.978 40.793 148.112 40.1752 148.247 39.5616C148.381 38.9479 148.561 38.1147 148.651 37.7124C148.736 37.3101 148.814 36.9768 148.818 36.9687C148.826 36.9605 148.948 36.9931 149.095 37.0378C149.242 37.0825 149.544 37.1637 149.768 37.2206C149.992 37.2735 150.323 37.3426 150.502 37.371C150.69 37.4035 151.147 37.4238 151.583 37.4238C152.211 37.4198 152.391 37.4076 152.644 37.3385C152.811 37.2938 153.088 37.1881 153.255 37.1028C153.48 36.989 153.647 36.863 153.892 36.6192C154.071 36.4403 154.312 36.1518 154.426 35.9852C154.536 35.8185 154.703 35.5422 154.793 35.3755C154.887 35.2089 155.009 34.9569 155.172 34.5627L154.585 33.3719C154.263 32.7217 153.798 31.7463 153.549 31.2098C153.304 30.6734 152.994 29.9947 152.868 29.7061C152.737 29.4176 152.44 28.7307 152.207 28.1821C151.971 27.6334 151.603 26.7556 151.391 26.2313C151.179 25.707 150.877 24.9389 150.718 24.5244C150.563 24.1098 150.319 23.4515 150.176 23.0613C150.037 22.6711 149.797 21.9843 149.646 21.5373C149.491 21.0902 149.36 20.7163 149.348 20.7041C149.34 20.6919 149.148 20.6879 148.92 20.6919C148.691 20.7001 148.328 20.7244 148.116 20.7448C147.904 20.7691 147.553 20.8179 147.341 20.8545C147.129 20.887 146.921 20.9317 146.88 20.952C146.815 20.9886 146.811 21.3706 146.811 35.3349H141.468L141.489 17.5138L142.243 17.2781C142.659 17.148 143.467 16.9245 144.038 16.7863C144.609 16.6441 145.351 16.4815 145.69 16.4206C146.024 16.3637 146.566 16.2864 146.893 16.2499C147.219 16.2133 147.806 16.1726 148.198 16.1564C148.589 16.1361 148.977 16.1239 149.054 16.1198V16.1198Z" fill="#333333"/>
</svg>
